<svg xmlns="http://www.w3.org/2000/svg" viewBox="0 0 39 27">
    <g class="social-icon" fill-rule="nonzero">
        <path d="M35.425 0H3.358A3.374 3.374 0 0 0 0 3.358V23.47a3.374 3.374 0 0 0 3.358 3.358h32.067a3.374 3.374 0 0 0 3.358-3.358V3.358A3.374 3.374 0 0 0 35.425 0ZM20.681 14.6a1.938 1.938 0 0 1-2.579 0L4.233 2.319h30.332L20.681 14.6Zm-7.181-.975L2.319 23.162V3.7L13.5 13.625Zm1.752 1.622 1.314 1.168a4.296 4.296 0 0 0 5.661 0l1.314-1.168 10.949 9.327H4.315l10.937-9.327Zm10.04-1.622 11.171-9.878v19.464l-11.171-9.586Z"/>
    </g>
</svg>
