<svg xmlns="http://www.w3.org/2000/svg" viewBox="0 0 417 417">
	<g class="social-icon" fill-rule="nonzero">
		<path d="M208.332 37.538c55.627 0 62.216.213 84.186 1.215 20.312.927 31.342 4.32 38.684 7.173a64.543 64.543 0 0 1 23.954 15.584 64.561 64.561 0 0 1 15.585 23.954c2.853 7.341 6.247 18.372 7.173 38.685 1.002 21.968 1.215 28.557 1.215 84.186 0 55.628-.213 62.215-1.215 84.186-.927 20.312-4.321 31.342-7.173 38.684a69.025 69.025 0 0 1-39.539 39.538c-7.341 2.853-18.372 6.247-38.684 7.173-21.964 1.003-28.553 1.215-84.186 1.215-55.633 0-62.219-.212-84.186-1.215-20.312-.927-31.342-4.321-38.684-7.173a64.539 64.539 0 0 1-23.954-15.584 64.547 64.547 0 0 1-15.584-23.954c-2.854-7.341-6.247-18.372-7.174-38.684-1.002-21.968-1.214-28.558-1.214-84.186 0-55.629.212-62.216 1.214-84.186.927-20.313 4.32-31.343 7.174-38.685a64.565 64.565 0 0 1 15.585-23.955 64.555 64.555 0 0 1 23.955-15.584c7.341-2.853 18.372-6.247 38.684-7.173 21.968-1.002 28.557-1.215 84.186-1.215m0-37.537c-56.58 0-63.677.24-85.895 1.254-22.175 1.012-37.319 4.533-50.57 9.684a102.126 102.126 0 0 0-36.9 24.029 102.13 102.13 0 0 0-24.036 36.9c-5.146 13.252-8.667 28.395-9.675 50.571C.24 144.655 0 151.752 0 208.332c0 56.58.24 63.677 1.258 85.895 1.012 22.175 4.533 37.318 9.684 50.57a102.126 102.126 0 0 0 24.029 36.899 102.12 102.12 0 0 0 36.9 24.03c13.252 5.15 28.395 8.671 50.57 9.684 22.221 1.014 29.315 1.253 85.894 1.253 56.579 0 63.677-.239 85.895-1.253 22.175-1.013 37.319-4.534 50.57-9.684a106.578 106.578 0 0 0 60.929-60.929c5.151-13.252 8.672-28.396 9.684-50.57 1.014-22.221 1.254-29.316 1.254-85.895 0-56.579-.24-63.677-1.254-85.894-1.012-22.176-4.533-37.319-9.684-50.571A102.126 102.126 0 0 0 381.7 34.968a102.127 102.127 0 0 0-36.902-24.035c-13.253-5.146-28.396-8.667-50.571-9.675C272.009.24 264.912 0 208.332 0h.002Z"/>
		<path d="M208.332 101.351c-58.688 0-106.981 48.293-106.981 106.981 0 58.688 48.293 106.982 106.981 106.982 58.688 0 106.982-48.294 106.982-106.982S267.02 101.351 208.332 101.351Zm0 176.425c-38.095-.001-69.443-31.349-69.443-69.444s31.348-69.443 69.444-69.443c38.095 0 69.443 31.348 69.443 69.443 0 38.096-31.348 69.444-69.444 69.444Z"/>
		<circle cx="319.54" cy="97.124" r="24.999" />
	</g>
</svg>
