<svg xmlns="http://www.w3.org/2000/svg" viewBox="0 0 417 400">
	<g class="social-icon" fill-rule="nonzero">
		<path d="M416.667 245.03v154.045h-89.305V255.347c0-36.105-12.918-60.746-45.243-60.746-24.676 0-39.361 16.606-45.822 32.67-2.356 5.742-2.962 13.735-2.962 21.774v150.03H144s1.203-243.427 0-268.648h89.326v38.08c-.181.284-.417.592-.587.868h.587v-.868c11.868-18.279 33.063-44.391 80.503-44.391 58.776-.001 102.838 38.396 102.838 120.914ZM50.551.925C19.99.925 0 20.971 0 47.332c0 25.787 19.411 46.441 49.365 46.441h.597c31.154 0 50.528-20.65 50.528-46.441C99.903 20.971 81.116.925 50.551.925ZM5.306 399.075h89.301V130.427H5.306v268.648Z"/>
	</g>
</svg>
