<svg xmlns="http://www.w3.org/2000/svg" viewBox="0 0 325 418">
	<g class="social-icon" fill-rule="nonzero">
		<path d="M141.649 1.929C72.409 9.658 3.414 65.676.566 145.696c-1.79 48.858 12.083 85.512 58.581 95.804 20.178-35.596-6.509-43.447-10.658-69.198C31.443 66.775 170.207-5.19 242.823 68.483c50.241 51.015 17.167 207.962-63.87 191.649-77.619-15.581 37.996-140.512-23.961-165.043-50.363-19.934-77.132 60.981-53.252 101.174-13.994 69.117-44.139 134.248-31.934 220.939 39.582-28.721 52.926-83.722 63.869-141.082 19.893 12.082 30.511 24.653 55.896 26.605 93.607 7.242 145.883-93.444 133.109-186.319C311.33 34.067 229.154-7.834 141.649 1.929Z"/>
	</g>
</svg>
