<svg viewBox="0 0 100 100" xmlns="http://www.w3.org/2000/svg"><path d="m49.792 72.144c-3.71 0-6.917-.951-9.37-3.71l4.008-3.757c1.553 1.7 3.155 2.958 5.712 2.958 1.753 0 4.009-.851 4.009-2.756 0-4.963-12.981-1.053-12.981-10.227 0-5.36 4.813-7.763 9.673-7.763 3.208 0 6.614 1 8.57 3.657l-4.009 3.61a5.462 5.462 0 0 0 -4.713-2.458c-1.6 0-3.506.752-3.506 2.556 0 4.307 12.979.8 12.979 10.173 0 5.71-5.462 7.717-10.371 7.717m-11.074-19.091a12.07 12.07 0 0 0 -2.906-.454 6.05 6.05 0 0 0 -6.466 6.064v12.879h-6.013v-24.052h6.013v3.809h.1a7.661 7.661 0 0 1 7.117-4.409 7.634 7.634 0 0 1 2.155.352zm53.456 23.789c.628-.984 1.234-1.989 1.8-3.017a13.872 13.872 0 0 0 1.029-3.708q.049-.364.09-.612v-11.59c0-3-.9-5.614-4.459-5.614-3.758 0-5.16 3.108-5.16 6.214v13.029h-6.014v-14.329c0-2.956-1.2-4.911-4.11-4.911-3.959 0-5.512 2.908-5.512 6.116v13.127h-6.014v-24.057h5.713v3.76h.1a7.637 7.637 0 0 1 7.365-4.361c3.708 0 6.263 1.455 7.519 4.457a8.371 8.371 0 0 1 7.916-4.457c3.927 0 6.286 1.711 7.535 4.361.009-.417.032-.83.032-1.249a50 50 0 0 0 -50-50 50 50 0 0 0 -50 50 50 50 0 0 0 50 50 49.956 49.956 0 0 0 42.17-23.152h-.005z"/></svg>