<svg xmlns="http://www.w3.org/2000/svg" viewBox="0 0 310 254">
    <g class="social-icon" fill-rule="nonzero">
        <path d="M302.975 29.388a117.512 117.512 0 0 1-14.993 5.463 66.276 66.276 0 0 0 13.494-23.73 5 5 0 0 0-7.313-5.824 117.994 117.994 0 0 1-34.878 13.783C246.904 6.982 230.088.097 212.704.097c-36.695 0-66.55 29.853-66.55 66.547 0 2.89.184 5.764.546 8.598-45.535-3.998-87.868-26.379-116.938-62.038a5.001 5.001 0 0 0-8.196.642c-5.896 10.117-9.013 21.688-9.013 33.461 0 16.035 5.725 31.249 15.838 43.137a56.37 56.37 0 0 1-8.907-3.977 5 5 0 0 0-7.427 4.257c-.007.295-.007.59-.007.889 0 23.935 12.882 45.484 32.577 57.229a57.372 57.372 0 0 1-5.063-.735 4.998 4.998 0 0 0-5.7 6.437c7.29 22.76 26.06 39.501 48.75 44.605-18.82 11.787-40.34 17.961-62.932 17.961a120.4 120.4 0 0 1-14.095-.826 5 5 0 0 0-3.286 9.174c29.023 18.609 62.582 28.445 97.047 28.445 67.754 0 110.139-31.95 133.764-58.753 29.46-33.421 46.356-77.658 46.356-121.367 0-1.826-.028-3.67-.084-5.508 11.623-8.757 21.63-19.355 29.773-31.536a5 5 0 0 0-6.182-7.351Z"/>
    </g>
</svg>
